<svg xmlns:xlink="http://www.w3.org/1999/xlink" class="bn-svg w-[24px] h-[24px]" viewBox="0 0 24 24" xmlns="http://www.w3.org/2000/svg" width="24"  height="24" ><path d="M6.4 20.6h11.2V7.4H6.4v13.2zM9.1 17v-5.5a.9.9 0 011.8 0V17a.9.9 0 01-1.8 0zm4 0v-5.5a.9.9 0 011.8 0V17a.9.9 0 01-1.8 0zM8.9 5.6h6.2V3.4H8.9v2.2zm8 0H21l.092.004a.9.9 0 010 1.792L21 7.4h-1.6V21a1.4 1.4 0 01-1.4 1.4H6A1.4 1.4 0 014.6 21V7.4H3a.9.9 0 010-1.8h4.1V3a1.4 1.4 0 011.4-1.4h7A1.4 1.4 0 0116.9 3v2.6z" fill="#848E9C"></path></svg>