<svg xmlns:xlink="http://www.w3.org/1999/xlink" class="bn-svg h-5 w-5" viewBox="0 0 24 24" xmlns="http://www.w3.org/2000/svg" width="24"  height="24" ><path d="M19.363 9.863a.9.9 0 011.274 0l2.5 2.5a.9.9 0 01-1.274 1.274l-.989-.99C20.542 17.26 16.698 20.9 12 20.9c-2.115 0-4.06-.74-5.588-1.972l-.3-.253-.065-.065a.9.9 0 011.185-1.342l.072.057.24.202a7.1 7.1 0 0011.52-4.818l-.927.928-.069.061a.9.9 0 01-1.266-1.266l.061-.069 2.5-2.5zM12 3.1c2.116 0 4.06.74 5.588 1.972l.3.253.065.065a.9.9 0 01-1.184 1.342l-.073-.057-.239-.202A7.1 7.1 0 004.934 11.29l.93-.928a.9.9 0 011.273 1.274l-2.5 2.5a.9.9 0 01-1.274 0l-2.5-2.5-.061-.069a.9.9 0 011.266-1.266l.069.061.988.989C3.457 6.739 7.303 3.1 12 3.1z" fill="#EAECEF"></path></svg>