<svg xmlns:xlink="http://www.w3.org/1999/xlink" size="16" class="bn-svg trading-page-close-button cursor-pointer absolute top-0 right-0 z-1 text-IconNormal" viewBox="0 0 24 24" xmlns="http://www.w3.org/2000/svg" width="24"  height="24" ><path d="M12 2c5.523 0 10 4.477 10 10s-4.477 10-10 10S2 17.523 2 12 6.477 2 12 2zm3.637 6.363a.9.9 0 00-1.274 0L12 10.727 9.637 8.363l-.069-.061a.9.9 0 00-1.266 1.266l.061.069L10.727 12l-2.364 2.363a.9.9 0 001.274 1.274L12 13.273l2.363 2.364.069.061a.9.9 0 001.266-1.266l-.061-.069L13.273 12l2.364-2.363a.9.9 0 000-1.274z" fill="#707A8A"></path></svg>