<svg xmlns:xlink="http://www.w3.org/1999/xlink" class="bn-svg w-full h-full text-[--color-IconNormal]" viewBox="0 0 24 24" xmlns="http://www.w3.org/2000/svg" width="24"  height="24" ><path d="M3.9 20.1h11.2V8.9H3.9v11.2zm13 .4a1.4 1.4 0 01-1.4 1.4h-12a1.4 1.4 0 01-1.393-1.256L2.1 20.5v-12a1.4 1.4 0 011.4-1.4h12a1.4 1.4 0 011.4 1.4v12z" fill="#707A8A"></path><path d="M21.9 15.5a1.4 1.4 0 01-1.4 1.4h-2a.9.9 0 010-1.8h1.6V3.9H8.9v1.6a.9.9 0 01-1.8 0v-2a1.4 1.4 0 011.4-1.4h12a1.4 1.4 0 011.4 1.4v12z" fill="#707A8A"></path></svg>