<svg xmlns:xlink="http://www.w3.org/1999/xlink" class="bn-svg w-[24px] h-[24px]" viewBox="0 0 25 25" xmlns="http://www.w3.org/2000/svg" width="25"  height="25" ><path fill-rule="evenodd" clip-rule="evenodd" d="M10.205 1.5a.512.512 0 00-.513.512v6.661c0 .283.23.512.513.512h3.586c.283 0 .513-.229.513-.512v-6.66a.512.512 0 00-.513-.513h-3.586zm0 13.3a.512.512 0 00-.513.512v6.661c0 .283.23.512.513.512h3.586c.283 0 .513-.229.513-.512v-6.66a.512.512 0 00-.513-.513h-3.586zm11.784-4.978c.283 0 .512.23.512.513v3.586c0 .283-.23.512-.512.512h-6.661a.512.512 0 01-.512-.512v-3.586c0-.283.23-.513.512-.513h6.66zm-12.81.513a.512.512 0 00-.512-.513h-6.66a.512.512 0 00-.513.513v3.586c0 .283.23.512.513.512h6.66c.283 0 .513-.229.513-.512v-3.586z" fill="#EAECEF"></path></svg>