<svg xmlns:xlink="http://www.w3.org/1999/xlink" class="bn-svg  chart-fullscreen-icon min-w-[16px] min-h-[16px] cursor-pointer text-[--color-IconNormal] hover:text-SecondaryText " viewBox="0 0 24 24" xmlns="http://www.w3.org/2000/svg" width="24"  height="24" ><path d="M9.363 13.363a.9.9 0 011.274 1.274L5.174 20.1H7l.092.005a.9.9 0 010 1.79L7 21.9H3a.9.9 0 01-.9-.9v-4a.9.9 0 011.8 0v1.826l5.463-5.463zM21.9 7a.9.9 0 01-1.8 0V5.174l-5.463 5.463a.9.9 0 01-1.274-1.274L18.826 3.9H17a.9.9 0 010-1.8h4a.9.9 0 01.9.9v4z" fill="#707A8A"></path></svg>