<svg xmlns:xlink="http://www.w3.org/1999/xlink" class="bn-svg h-[16px] w-[16px]" size="12" viewBox="0 0 24 24" xmlns="http://www.w3.org/2000/svg" width="24"  height="24" ><path d="M21.5 1.6l.092.004a.9.9 0 010 1.792L21.5 3.4H2a.9.9 0 010-1.8h19.5zM21.5 20.6l.092.005a.9.9 0 010 1.79l-.092.005H2a.9.9 0 010-1.8h19.5zM11.1 18V6a.9.9 0 011.796-.092L12.9 6v12l-.005.092a.9.9 0 01-1.79 0L11.1 18z" fill="#848E9C"></path><path d="M11.116 4.621a1.4 1.4 0 011.768 0l.106.096 3.147 3.146.061.069a.9.9 0 01-1.266 1.266l-.069-.061L12 6.273 9.137 9.137a.9.9 0 01-1.274-1.274l3.147-3.146.106-.096zM11.116 19.379a1.4 1.4 0 001.768 0l.106-.096 3.147-3.146.061-.069a.9.9 0 00-1.266-1.266l-.069.061L12 17.727l-2.863-2.864a.9.9 0 00-1.274 1.274l3.147 3.146.106.096z" fill="#848E9C"></path></svg>