<svg xmlns:xlink="http://www.w3.org/1999/xlink" class="bn-svg w-[24px] h-[24px]" viewBox="0 0 24 24" xmlns="http://www.w3.org/2000/svg" width="24"  height="24" ><path d="M12.352 5.239c1.81 0 3.556.665 4.907 1.868l5.072 4.52a.5.5 0 010 .747l-5.072 4.518a7.377 7.377 0 01-4.907 1.87h-.704a7.378 7.378 0 01-4.907-1.87l-5.072-4.518a.5.5 0 010-.747l5.072-4.52a7.377 7.377 0 014.907-1.868h.704zm-.704 1.8a5.577 5.577 0 00-3.514 1.247l-.196.166L3.955 12l3.983 3.549.196.166a5.577 5.577 0 003.514 1.246h.704a5.575 5.575 0 003.71-1.412l3.982-3.55-3.983-3.547a5.577 5.577 0 00-3.709-1.413h-.704z" fill="#848E9C"></path><path fill="#848E9C" d="M9.034 11.998L12 9.03l2.967 2.967L12 14.964z"></path></svg>