<svg xmlns:xlink="http://www.w3.org/1999/xlink" viewBox="0 0 24 24" fill="none" xmlns="http://www.w3.org/2000/svg" width="24"  height="24" >
<path d="M12.3524 5.23901C14.1616 5.23905 15.9078 5.90377 17.2587 7.10718L22.331 11.6267C22.5541 11.8256 22.5541 12.1749 22.331 12.3738L17.2587 16.8923C15.9078 18.0958 14.1617 18.7614 12.3524 18.7615H11.6483C9.83906 18.7615 8.09203 18.0959 6.74111 16.8923L1.66885 12.3738C1.44566 12.1749 1.44568 11.8256 1.66885 11.6267L6.74111 7.10718C8.09203 5.90363 9.83906 5.23901 11.6483 5.23901H12.3524ZM11.6483 7.03882C10.366 7.03882 9.12521 7.48092 8.13369 8.28589L7.93838 8.4519L3.95498 11.9998L7.93838 15.5486L8.13369 15.7146C9.12519 16.5195 10.3661 16.9607 11.6483 16.9607H12.3524C13.7201 16.9607 15.0402 16.4584 16.0614 15.5486L20.0438 11.9998L16.0614 8.4519C15.0402 7.54211 13.7201 7.03886 12.3524 7.03882H11.6483Z" fill="#848E9C" fill-opacity="0.8"></path>
<rect x="9.03369" y="11.9978" width="4.1951" height="4.1951" transform="rotate(-45 9.03369 11.9978)" fill="#848E9C"></rect>
</svg>