<svg xmlns:xlink="http://www.w3.org/1999/xlink" class="bn-svg w-[24px] h-[24px]" viewBox="0 0 24 24" xmlns="http://www.w3.org/2000/svg" width="24"  height="24" ><path d="M21.9 21.002c0 .778-.632 1.398-1.4 1.398H15a.9.9 0 010-1.8h5.1V12c0-3.22-1.048-5.335-2.514-6.653C16.102 4.012 14.085 3.4 12 3.4c-2.084 0-4.101.612-5.586 1.947C4.948 6.665 3.9 8.779 3.9 12v8.6H9l.092.005a.9.9 0 010 1.79L9 22.4H3.5a1.4 1.4 0 01-1.4-1.399V12c0-3.64 1.202-6.276 3.11-7.992C7.102 2.308 9.586 1.6 12 1.6s4.899.708 6.79 2.408C20.697 5.724 21.9 8.36 21.9 12v9.002z" fill="#848E9C"></path><path d="M14.1 21.5v-8.257c0-.971-.303-1.524-.647-1.84-.36-.33-.873-.503-1.453-.503-.573 0-1.088.177-1.451.513-.348.322-.649.877-.649 1.83V21.5a.9.9 0 01-1.8 0v-8.257c0-1.363.45-2.43 1.226-3.15.762-.706 1.747-.993 2.674-.993.92 0 1.906.275 2.672.98.781.718 1.228 1.787 1.228 3.163V21.5a.9.9 0 01-1.8 0z" fill="#848E9C"></path><path d="M9 17.1l.092.005a.9.9 0 010 1.79L9 18.9H4a.9.9 0 010-1.8h5zM20.604 16.66l.092.005a.9.9 0 010 1.79l-.092.005h-4.95a.9.9 0 010-1.8h4.95z" fill="#848E9C"></path></svg>