<svg xmlns:xlink="http://www.w3.org/1999/xlink" viewBox="0 0 24 24" xmlns="http://www.w3.org/2000/svg" class="bn-svg" width="24"  height="24" ><path d="M2 12c0-3.781 2.1-7.07 5.195-8.77.711-.39 1.461.32 1.37 1.126l-.028.282A10.11 10.11 0 008.5 5.5l.013.514a10 10 0 009.472 9.472l.515.013c.388 0 .77-.022 1.146-.065.805-.092 1.516.658 1.126 1.37l-.164.286A9.993 9.993 0 0112 22v-1.8a8.178 8.178 0 006.258-2.905C11.933 17.168 6.83 12.066 6.703 5.742a8.176 8.176 0 00-2.898 5.968L3.8 12a8.2 8.2 0 008.2 8.2V22l-.515-.014a10 10 0 01-9.472-9.472L2 12z" fill="#EAECEF"></path></svg>