<svg xmlns:xlink="http://www.w3.org/1999/xlink" class="bn-svg w-[24px] h-[24px]" viewBox="0 0 24 24" xmlns="http://www.w3.org/2000/svg" width="24"  height="24" ><path d="M21.09 15.132c.506 0 .91.404.91.909v4.545c0 .778-.636 1.414-1.414 1.414H16.04a.905.905 0 01-.91-.91c.001-.504.405-.908.91-.908h4.14V16.04c0-.505.405-.909.91-.91zM15.02 3.323a1.408 1.408 0 012 0l3.657 3.656a1.409 1.409 0 010 2L9.727 19.93c-.08.081-.181.142-.272.192-.141.08-.293.142-.465.172l-4.414.778-.182.02c-.829.04-1.526-.647-1.475-1.475l.02-.181.778-4.414c.02-.112.051-.213.092-.314a.927.927 0 01.231-.394l10.98-10.99zM4.819 19.182l3.081-.545-2.536-2.535-.545 3.08zm1.556-4.647l3.081 3.081 7-7-3.081-3.08-7 7zm8.293-8.282l3.081 3.08 1.363-1.363-3.08-3.081-1.364 1.364zM7.96 2c.505 0 .91.404.91.91a.906.906 0 01-.91.908H3.818V7.96c0 .505-.404.91-.909.91A.906.906 0 012 7.96V3.414C2 2.636 2.636 2 3.414 2H7.96z" fill="#848E9C"></path></svg>