<svg xmlns:xlink="http://www.w3.org/1999/xlink" viewBox="0 0 24 24" fill="none" xmlns="http://www.w3.org/2000/svg" width="24"  height="24" >
<path d="M5.13965 8.039V15.9599L12 19.9208L18.8604 15.9599V8.039L12 4.07806L5.13965 8.039ZM20.6602 16.1337L20.6475 16.3329C20.5863 16.7902 20.3161 17.1981 19.9102 17.4326L12.75 21.5673L12.5713 21.6552C12.2056 21.8058 11.7944 21.8058 11.4287 21.6552L11.25 21.5673L4.08984 17.4326C3.68389 17.1981 3.41368 16.7902 3.35254 16.3329L3.33984 16.1337V7.86615C3.33984 7.33029 3.6258 6.83528 4.08984 6.56732L11.25 2.43255C11.714 2.16474 12.286 2.16474 12.75 2.43255L19.9102 6.56732C20.3742 6.83528 20.6602 7.33029 20.6602 7.86615V16.1337Z" fill="#848E9C" fill-opacity="0.8"></path>
<path d="M12 8.82007L15.182 12.002L12 15.184L8.81802 12.002L12 8.82007Z" fill="#848E9C" fill-opacity="0.8"></path>
</svg>