<svg xmlns:xlink="http://www.w3.org/1999/xlink" class="bn-svg text-IconNormal text-[16px] cursor-pointer hover:text-PrimaryText" size="16" viewBox="0 0 24 24" xmlns="http://www.w3.org/2000/svg" width="24"  height="24" ><path d="M6.5 6.1l.092.004a.9.9 0 010 1.792L6.5 7.9H3a.9.9 0 010-1.8h3.5zM21 6.1l.092.004a.9.9 0 010 1.792L21 7.9h-8.5a.9.9 0 010-1.8H21zM21 16.1l.092.005a.9.9 0 010 1.79L21 17.9h-3.5a.9.9 0 010-1.8H21zM11.5 16.1l.092.005a.9.9 0 010 1.79l-.092.005H3a.9.9 0 010-1.8h8.5z" fill="#707A8A"></path><path d="M11.2 7a1.7 1.7 0 10-1.7 1.7v1.8a3.5 3.5 0 110-7 3.5 3.5 0 010 7V8.7A1.7 1.7 0 0011.2 7zM16.2 17a1.7 1.7 0 10-1.7 1.7v1.8a3.5 3.5 0 110-7 3.5 3.5 0 010 7v-1.8a1.7 1.7 0 001.7-1.7z" fill="#707A8A"></path></svg>