<svg xmlns:xlink="http://www.w3.org/1999/xlink" class="bn-svg w-[24px] h-[24px]" viewBox="0 0 24 24" xmlns="http://www.w3.org/2000/svg" width="24"  height="24" ><path d="M6 10.5a3 3 0 110-6 3 3 0 010 6zM6 19.5a3 3 0 110-6 3 3 0 010 6zM18 10.5a3 3 0 110-6 3 3 0 010 6zM18 19.5a3 3 0 110-6 3 3 0 010 6z" fill="#848E9C"></path><path d="M5.1 16.5V7a.9.9 0 011.796-.092L6.9 7v9.5l-.004.092a.9.9 0 01-1.792 0L5.1 16.5zM17.1 16.5V7a.9.9 0 011.795-.092L18.9 7v9.5l-.005.092a.9.9 0 01-1.79 0L17.1 16.5z" fill="#848E9C"></path><path d="M5 15.6h12a.9.9 0 010 1.8H5a.9.9 0 010-1.8zM7 6.6h12a.9.9 0 010 1.8H7a.9.9 0 010-1.8z" fill="#848E9C"></path></svg>