<svg xmlns:xlink="http://www.w3.org/1999/xlink" class="bn-svg text-[16px] text-PrimaryYellow" viewBox="0 0 24 24" xmlns="http://www.w3.org/2000/svg" width="24"  height="24" ><path d="M11.087 3.049c.352-.79 1.474-.79 1.827 0L15.08 7.91a1 1 0 00.809.588l5.293.558c.86.091 1.207 1.158.564 1.738l-3.953 3.563a1 1 0 00-.31.95l1.105 5.207c.18.846-.728 1.506-1.478 1.073l-4.61-2.659a1 1 0 00-1 0l-4.61 2.66c-.75.432-1.657-.228-1.478-1.074l1.104-5.207a1 1 0 00-.308-.95l-3.954-3.563c-.643-.58-.296-1.647.564-1.738l5.293-.558a1 1 0 00.809-.588l2.167-4.861z" fill="#F0B90B"></path></svg>