<svg xmlns:xlink="http://www.w3.org/1999/xlink" data-testid="orderform-preference-button" class="bn-svg text-IconNormal hover:text-PrimaryText cursor-pointer" viewBox="0 0 24 24" xmlns="http://www.w3.org/2000/svg" width="24"  height="24" ><path d="M4.9 10a1.5 1.5 0 011.5 1.5v1A1.5 1.5 0 014.9 14h-1a1.5 1.5 0 01-1.5-1.5v-1A1.5 1.5 0 013.9 10h1zm7.6 0a1.5 1.5 0 011.5 1.5v1a1.5 1.5 0 01-1.5 1.5h-1a1.5 1.5 0 01-1.5-1.5v-1a1.5 1.5 0 011.5-1.5h1zm7.6 0a1.5 1.5 0 011.5 1.5v1a1.5 1.5 0 01-1.5 1.5h-1a1.5 1.5 0 01-1.5-1.5v-1a1.5 1.5 0 011.5-1.5h1z" fill="#707A8A"></path></svg>