<svg xmlns:xlink="http://www.w3.org/1999/xlink" class="bn-svg min-h-[16px] min-w-[16px] text-[--color-IconNormal]" viewBox="0 0 24 24" xmlns="http://www.w3.org/2000/svg" width="24"  height="24" ><path d="M4.863 5.363a.9.9 0 011.205-.061l.069.061 6 6c.33.33.35.852.061 1.205l-.061.069-6 6a.901.901 0 01-1.274-1.274L10.226 12 4.863 6.637l-.061-.069a.9.9 0 01.061-1.205zm7 0a.9.9 0 011.205-.061l.069.061 6 6a.9.9 0 01.061 1.205l-.061.069-6 6a.901.901 0 01-1.274-1.274L17.227 12l-5.364-5.363-.061-.069a.9.9 0 01.061-1.205z" fill="#848E9C"></path></svg>