<svg xmlns:xlink="http://www.w3.org/1999/xlink" class="bn-svg w-[24px] h-[24px]" viewBox="0 0 24 24" xmlns="http://www.w3.org/2000/svg" width="24"  height="24" ><path fill-rule="evenodd" clip-rule="evenodd" d="M12.878 15.912a1.7 1.7 0 10-1.53.013l-.805 2.325h3.145l-.81-2.338z" fill="#848E9C"></path><path d="M5.8 20.2h12.4V9.8H5.8v10.4zm14.2.3a1.5 1.5 0 01-1.5 1.5h-13A1.5 1.5 0 014 20.5v-11A1.5 1.5 0 015.5 8h13A1.5 1.5 0 0120 9.5v11z" fill="#848E9C"></path><path d="M6.35 8.5v-.552C6.35 4.753 8.845 2.1 12 2.1c1.99 0 3.725 1.063 4.727 2.645l.191.322.04.083a.9.9 0 01-1.57.86l-.05-.077-.132-.226C14.51 4.607 13.326 3.9 12 3.9c-2.092 0-3.85 1.777-3.85 4.048V8.5a.9.9 0 01-1.8 0z" fill="#848E9C"></path></svg>