<svg xmlns:xlink="http://www.w3.org/1999/xlink" class="bn-svg bn-notification-prefix text-[20px] min-w-[20px] mr-1" viewBox="0 0 24 24" xmlns="http://www.w3.org/2000/svg" width="24"  height="24" ><path d="M12 1.6c5.744 0 10.4 4.656 10.4 10.4 0 5.744-4.656 10.4-10.4 10.4-5.744 0-10.4-4.656-10.4-10.4C1.6 6.256 6.256 1.6 12 1.6zm0 1.8A8.6 8.6 0 003.4 12a8.6 8.6 0 008.6 8.6 8.6 8.6 0 008.6-8.6A8.6 8.6 0 0012 3.4zm0 12.1a1 1 0 110 2 1 1 0 010-2zm0-8.7a.9.9 0 01.9.9v6a.9.9 0 01-1.8 0v-6a.9.9 0 01.9-.9z" fill="#EAECEF"></path></svg>