<svg xmlns:xlink="http://www.w3.org/1999/xlink" class="bn-svg text-Success mr-[4px]" viewBox="0 0 24 24" xmlns="http://www.w3.org/2000/svg" width="24"  height="24" ><path d="M11.923 3.097c2.11 0 4.19.445 5.97 1.19 1.77.741 3.309 1.805 4.273 3.091a.901.901 0 01-1.44 1.08c-.716-.954-1.951-1.851-3.527-2.51a13.877 13.877 0 00-5.276-1.05c-1.866 0-3.71.394-5.275 1.05-1.576.659-2.812 1.556-3.528 2.51a.9.9 0 11-1.44-1.08c.965-1.286 2.502-2.35 4.273-3.09a15.678 15.678 0 015.97-1.191z" fill="#2EBD85"></path><path d="M11.923 8.139c2.518 0 5.16 1.072 7 2.726l.358.338.062.068a.9.9 0 01-1.267 1.267l-.068-.062-.294-.278c-1.519-1.362-3.734-2.259-5.791-2.259-2.195 0-4.57 1.02-6.086 2.537a.9.9 0 01-1.274-1.273c1.845-1.844 4.674-3.064 7.36-3.064zM11.922 13.18c1.82 0 3.096.59 4.277 1.557l.234.198.067.063a.9.9 0 01-1.174 1.353l-.073-.058-.37-.303c-.86-.665-1.72-1.01-2.961-1.01-1.42.001-2.338.45-3.33 1.313l-.074.058a.9.9 0 01-1.108-1.416l.235-.198c1.18-.967 2.457-1.557 4.277-1.557z" fill="#2EBD85"></path><circle cx="11.992" cy="19.192" r="1.75" fill="#2EBD85"></circle></svg>